<svg version="1.1" xmlns="http://www.w3.org/2000/svg" style="display: block;" viewBox="0 0 2048 2048" width="1024" height="1024" preserveAspectRatio="none">
<path transform="translate(0,0)" fill="rgb(255,255,255)" d="M 0 0 L 2048 0 L 2048 2048 L 0 2048 L 0 0 z"/>
<path transform="translate(0,0)" fill="rgb(16,59,105)" d="M 994.039 512.058 L 1058.31 512.108 L 1107.01 512.105 C 1125.42 512.371 1154.3 513.692 1171.7 512.221 C 1188.12 512.081 1204.55 512.035 1220.97 512.083 C 1237.69 512.548 1269.85 514.965 1284.72 512.193 L 1334.36 512.058 L 1398.48 512.139 L 1448.18 512.059 C 1466.54 512.311 1494.23 513.524 1512.04 512.848 C 1558.73 515.639 1584.44 538.525 1594.39 584.112 C 1595.01 597.274 1595.27 610.45 1595.18 623.626 C 1595.18 628.198 1594.94 643.051 1595.52 646.911 C 1596.42 659.464 1596.05 682.656 1595.68 695.729 C 1595.38 715.254 1594.94 739.451 1595.61 758.878 C 1596.8 770.853 1596.07 792.784 1595.95 805.464 C 1622.97 804.572 1645.85 799.019 1664.14 822.543 L 1699.85 822.619 L 1699.89 851.814 L 1663.79 852.154 C 1649.05 876.97 1621.38 869.283 1595.93 869.435 L 1595.91 916.155 C 1622.11 915.837 1647.17 910.409 1664.59 933.75 L 1699.93 933.687 L 1699.98 964.026 C 1687.77 964.171 1675.56 964.147 1663.35 963.952 C 1649.03 987.612 1620.27 979.656 1595.94 980.341 L 1595.9 1027.83 C 1622.76 1027.47 1645.29 1021.73 1663.94 1044.13 L 1699.97 1043.98 L 1699.99 1075.36 C 1687.91 1075.68 1675.82 1075.66 1663.74 1075.32 C 1655.68 1088.71 1647.66 1091.52 1632.06 1091.8 C 1620 1092.02 1607.9 1091.74 1595.84 1091.61 L 1595.91 1138.64 C 1623.44 1138.64 1645.89 1132.38 1664.37 1155.81 C 1676.2 1155.88 1688.04 1155.83 1699.87 1155.66 L 1699.92 1186.84 C 1687.97 1186.8 1675 1187.01 1663.15 1186.3 C 1652.79 1204.3 1640.16 1203.19 1621.28 1203.24 C 1612.89 1203.26 1604.3 1202.98 1595.91 1202.93 C 1595.93 1218.13 1596.1 1233.59 1595.94 1248.77 C 1621.28 1248.43 1647.23 1242.56 1663.39 1265.35 L 1699.88 1265.17 L 1699.83 1294.8 L 1663.71 1294.98 C 1654.7 1309.92 1645.75 1312.08 1628.45 1312.3 C 1617.66 1312.44 1606.77 1312.05 1595.97 1311.84 L 1595.98 1358.22 C 1619.51 1358.06 1649.03 1352.8 1663.78 1374.18 C 1675.74 1374.34 1687.69 1374.32 1699.65 1374.14 L 1699.88 1406 L 1663.84 1406.01 C 1658.97 1413.93 1654.04 1419.68 1644.13 1421.17 C 1630.15 1423.28 1610.15 1422.26 1595.89 1422.11 C 1595.93 1436.96 1596.37 1454.61 1595.72 1469.37 C 1595.71 1472.2 1595.78 1486.85 1595.17 1488.67 C 1594.95 1501.1 1593.76 1513.27 1589.78 1525.16 C 1577.65 1562.99 1549.71 1576.46 1512.5 1580.42 C 1491.87 1581.39 1470.96 1580.52 1450.33 1580.87 L 1398.95 1580.95 C 1378.29 1580.62 1357.63 1580.61 1336.98 1580.92 L 1284.95 1580.91 C 1265.45 1580.27 1242.53 1580.73 1223.04 1580.93 C 1206.03 1581.05 1189.02 1581.04 1172.02 1580.89 C 1154 1580.12 1127.97 1580.61 1109.67 1580.93 C 1092.37 1581.04 1075.07 1581.04 1057.78 1580.91 C 1036.91 1580.79 1016.04 1580.82 995.178 1581 L 943.953 1580.9 C 925.181 1580.27 900.81 1580.44 882.002 1580.89 C 864.758 1581.04 847.514 1581.05 830.27 1580.91 C 811.672 1580.15 786.854 1580.41 768.169 1580.91 C 750.831 1580.99 733.492 1580.98 716.154 1580.88 C 698.641 1580.01 672.404 1580.83 654.287 1580.99 L 602.18 1580.91 L 539.776 1580.74 C 497.305 1577.76 472.423 1562.68 457.641 1521.83 C 456.005 1514.32 453.255 1504.08 453.089 1496.61 C 452.647 1476.64 452.848 1456.36 452.877 1436.39 L 452 1436.11 L 452.127 1421.01 C 439.85 1420.95 427.458 1421.51 415.173 1421.29 C 399.543 1421.01 392.881 1417.86 385.23 1404.83 C 373.188 1404.33 360.389 1404.53 348.284 1404.52 L 348.199 1373.4 L 384.95 1373.15 C 394.885 1358.56 404.354 1356.77 421.579 1356.79 C 431.717 1356.8 442.008 1356.9 452.16 1357 L 452.146 1310.85 C 445.679 1310.77 439.093 1311.13 432.628 1311.07 C 410.916 1310.86 397.224 1314.71 384.414 1294.02 L 348.17 1294.03 L 348.078 1264.2 L 384.421 1264.05 C 400.329 1239.66 426.458 1247.81 452.247 1246.54 C 451.904 1231.77 452.118 1216.48 452.145 1201.66 C 442.291 1201.85 432.31 1202.12 422.462 1202.12 C 404.812 1202.12 394.722 1201.08 385.037 1185.21 C 372.832 1185.36 360.391 1185.23 348.166 1185.22 L 348.083 1154.05 L 384.623 1153.92 C 402.304 1130.88 425.217 1136.92 452.055 1137.06 L 452.082 1089.96 C 437.781 1089.94 418.754 1091.15 404.861 1089.21 C 394.389 1087.74 389.716 1081.73 384.59 1073.59 L 348.269 1073.78 L 348.122 1042.23 C 360.19 1042.04 372.689 1042.21 384.793 1042.21 C 399.49 1020 428.053 1025.92 452.066 1026.09 L 452.059 978.899 L 452.891 973.558 L 452.975 911.058 L 452.223 911.297 C 451.825 897.156 452.158 881.704 452.197 867.467 C 427.369 866.782 399.059 875.94 385.091 851.026 L 348.23 850.917 L 348.277 821.553 C 360.393 821.269 372.9 821.321 385.05 821.228 C 400.199 797.849 428.007 803.305 452.51 804.47 C 452.293 788.937 452.172 773.403 452.147 757.868 C 439.904 758.031 427.546 758.422 415.307 758.132 C 400.413 757.779 393.083 754.547 385.3 742.238 L 348.409 742.312 L 348.351 711.107 C 360.561 711.176 372.772 711.105 384.98 710.896 C 400.901 687.89 416.526 695.413 440.902 694.339 C 445.037 694.157 448.183 694.828 452.045 693.162 C 451.166 681.046 451.848 659.765 451.85 646.962 C 437.377 646.58 419.478 648.214 405.416 645.641 C 394.72 643.683 390.286 638.358 385.124 629.865 C 373.499 629.52 360.646 629.807 348.922 629.861 L 348.886 600.91 C 360.753 600.972 372.621 600.905 384.486 600.709 C 398.837 577.836 430.434 583.088 454.579 583.94 C 460.696 538.44 496.386 515.061 539.737 512.342 L 604.128 512.123 L 654.108 512.097 C 674.991 512.674 696.451 513.355 717.299 512.262 C 733.889 512.1 750.481 512.026 767.072 512.04 L 831.313 512.195 L 880.614 512.232 C 902.05 512.313 923.486 512.277 944.922 512.126 L 994.039 512.058 z"/>
<path transform="translate(0,0)" fill="rgb(121,138,150)" d="M 1595.17 1488.67 C 1594.41 1483.22 1594.79 1466.67 1594.8 1460.15 L 1595.18 1395.56 L 1595.33 1173.67 C 1594.7 1068.63 1594.72 963.583 1595.4 858.54 C 1595.76 832.199 1593.15 783.426 1595.61 758.878 C 1596.8 770.853 1596.07 792.784 1595.95 805.464 C 1622.97 804.572 1645.85 799.019 1664.14 822.543 L 1699.85 822.619 L 1699.89 851.814 L 1663.79 852.154 C 1649.05 876.97 1621.38 869.283 1595.93 869.435 L 1595.91 916.155 C 1622.11 915.837 1647.17 910.409 1664.59 933.75 L 1699.93 933.687 L 1699.98 964.026 C 1687.77 964.171 1675.56 964.147 1663.35 963.952 C 1649.03 987.612 1620.27 979.656 1595.94 980.341 L 1595.9 1027.83 C 1622.76 1027.47 1645.29 1021.73 1663.94 1044.13 L 1699.97 1043.98 L 1699.99 1075.36 C 1687.91 1075.68 1675.82 1075.66 1663.74 1075.32 C 1655.68 1088.71 1647.66 1091.52 1632.06 1091.8 C 1620 1092.02 1607.9 1091.74 1595.84 1091.61 L 1595.91 1138.64 C 1623.44 1138.64 1645.89 1132.38 1664.37 1155.81 C 1676.2 1155.88 1688.04 1155.83 1699.87 1155.66 L 1699.92 1186.84 C 1687.97 1186.8 1675 1187.01 1663.15 1186.3 C 1652.79 1204.3 1640.16 1203.19 1621.28 1203.24 C 1612.89 1203.26 1604.3 1202.98 1595.91 1202.93 C 1595.93 1218.13 1596.1 1233.59 1595.94 1248.77 C 1621.28 1248.43 1647.23 1242.56 1663.39 1265.35 L 1699.88 1265.17 L 1699.83 1294.8 L 1663.71 1294.98 C 1654.7 1309.92 1645.75 1312.08 1628.45 1312.3 C 1617.66 1312.44 1606.77 1312.05 1595.97 1311.84 L 1595.98 1358.22 C 1619.51 1358.06 1649.03 1352.8 1663.78 1374.18 C 1675.74 1374.34 1687.69 1374.32 1699.65 1374.14 L 1699.88 1406 L 1663.84 1406.01 C 1658.97 1413.93 1654.04 1419.68 1644.13 1421.17 C 1630.15 1423.28 1610.15 1422.26 1595.89 1422.11 C 1595.93 1436.96 1596.37 1454.61 1595.72 1469.37 C 1595.71 1472.2 1595.78 1486.85 1595.17 1488.67 z"/>
<path transform="translate(0,0)" fill="rgb(121,138,150)" d="M 452.059 978.899 L 452.891 973.558 C 453.5 1008.11 452.887 1043.74 452.895 1078.37 L 452.942 1275.42 L 452.948 1382.85 C 452.955 1398.17 453.81 1421.65 452.877 1436.39 L 452 1436.11 L 452.127 1421.01 C 439.85 1420.95 427.458 1421.51 415.173 1421.29 C 399.543 1421.01 392.881 1417.86 385.23 1404.83 C 373.188 1404.33 360.389 1404.53 348.284 1404.52 L 348.199 1373.4 L 384.95 1373.15 C 394.885 1358.56 404.354 1356.77 421.579 1356.79 C 431.717 1356.8 442.008 1356.9 452.16 1357 L 452.146 1310.85 C 445.679 1310.77 439.093 1311.13 432.628 1311.07 C 410.916 1310.86 397.224 1314.71 384.414 1294.02 L 348.17 1294.03 L 348.078 1264.2 L 384.421 1264.05 C 400.329 1239.66 426.458 1247.81 452.247 1246.54 C 451.904 1231.77 452.118 1216.48 452.145 1201.66 C 442.291 1201.85 432.31 1202.12 422.462 1202.12 C 404.812 1202.12 394.722 1201.08 385.037 1185.21 C 372.832 1185.36 360.391 1185.23 348.166 1185.22 L 348.083 1154.05 L 384.623 1153.92 C 402.304 1130.88 425.217 1136.92 452.055 1137.06 L 452.082 1089.96 C 437.781 1089.94 418.754 1091.15 404.861 1089.21 C 394.389 1087.74 389.716 1081.73 384.59 1073.59 L 348.269 1073.78 L 348.122 1042.23 C 360.19 1042.04 372.689 1042.21 384.793 1042.21 C 399.49 1020 428.053 1025.92 452.066 1026.09 L 452.059 978.899 z"/>
<path transform="translate(0,0)" fill="rgb(121,138,150)" d="M 452.045 693.162 L 452.898 692.97 C 452.892 765.278 453.853 838.82 452.975 911.058 L 452.223 911.297 C 451.825 897.156 452.158 881.704 452.197 867.467 C 427.369 866.782 399.059 875.94 385.091 851.026 L 348.23 850.917 L 348.277 821.553 C 360.393 821.269 372.9 821.321 385.05 821.228 C 400.199 797.849 428.007 803.305 452.51 804.47 C 452.293 788.937 452.172 773.403 452.147 757.868 C 439.904 758.031 427.546 758.422 415.307 758.132 C 400.413 757.779 393.083 754.547 385.3 742.238 L 348.409 742.312 L 348.351 711.107 C 360.561 711.176 372.772 711.105 384.98 710.896 C 400.901 687.89 416.526 695.413 440.902 694.339 C 445.037 694.157 448.183 694.828 452.045 693.162 z"/>
<path transform="translate(0,0)" fill="rgb(193,201,204)" d="M 384.486 600.709 C 398.837 577.836 430.434 583.088 454.579 583.94 C 451.676 615.076 452.846 660.592 452.898 692.97 L 452.045 693.162 C 451.166 681.046 451.848 659.765 451.85 646.962 C 437.377 646.58 419.478 648.214 405.416 645.641 C 394.72 643.683 390.286 638.358 385.124 629.865 C 373.499 629.52 360.646 629.807 348.922 629.861 L 348.886 600.91 C 360.753 600.972 372.621 600.905 384.486 600.709 z"/>
<path transform="translate(0,0)" fill="rgb(63,168,228)" d="M 594.983 545.464 L 1198.67 545.233 L 1376.95 545.286 C 1388.59 545.274 1400.43 545.273 1411.93 545.25 C 1460.77 545.19 1511.04 540.3 1542.76 585.648 C 1567.02 620.328 1561.18 666.712 1561.14 707.525 L 1561.16 813.777 L 1561.12 1147.18 L 1561.17 1356.58 L 1561.17 1420.38 C 1561.15 1455.32 1562.76 1489.05 1536.87 1516.49 C 1512.16 1542.67 1486.41 1546.75 1452.3 1547.82 L 847.139 1547.79 L 665.485 1547.78 C 640.522 1547.77 591.939 1549.12 568.987 1546.16 C 549.429 1543.82 531.087 1535.44 516.523 1522.18 C 479.587 1488.65 486.892 1436.68 486.801 1391.36 L 486.572 1276.45 L 486.613 934.951 L 486.683 732.946 L 486.577 673.917 C 486.552 660.317 486.347 646.3 487.699 632.902 C 491.8 592.245 518.838 558.974 559.015 549.332 C 571.707 546.286 582.002 545.902 594.983 545.464 z"/>
<path transform="translate(0,0)" fill="rgb(16,59,105)" d="M 1043.26 609.95 C 994.715 613.304 1033 558.076 1050.5 591.514 C 1052.78 595.871 1049.26 603.057 1046.87 607.015 C 1061.32 628.491 1082.49 654.927 1095.35 676.057 C 1092.09 694.583 1089.42 715.074 1086.85 733.789 C 1099.18 724.962 1111.77 715.699 1124.56 707.628 C 1121.02 693.566 1117.78 679.43 1114.84 665.23 C 1118.47 652.878 1131.55 626.213 1137.51 613.571 C 1126.95 658.109 1115.91 649.89 1136.84 698.653 C 1153.21 684.597 1163.66 665.216 1174.78 646.909 C 1153.18 716.077 1130.44 715.206 1084.09 759.197 C 1083.54 788.937 1083.41 818.684 1083.72 848.428 L 1104.54 828.151 C 1104.68 817.096 1104.72 806.041 1104.67 794.986 C 1129.26 770.774 1156.01 745.911 1181.09 722.065 C 1181.69 717.678 1181.8 711.597 1182.03 707.051 C 1171.85 698.224 1166.72 694.101 1173.78 680.229 C 1184.95 658.284 1218.7 678.593 1207.02 698.557 C 1203.49 704.598 1196.14 706.942 1189.85 708.388 L 1188.93 725.089 C 1179.69 735.676 1163.04 750.034 1152.32 761.378 C 1150.19 784.162 1149.7 795.464 1151.87 818.274 C 1165.91 805.724 1178.9 793.21 1188.75 777.063 C 1198.23 761.517 1207.93 733.102 1221.15 721.151 C 1234.88 708.731 1261.37 694.778 1278.14 684.95 C 1255.16 705.539 1227.62 719.84 1216.39 750.439 C 1209.29 769.792 1200.78 793.95 1187.3 809.465 C 1177.18 821.108 1166.28 831.02 1156.69 843.414 C 1228.67 835.228 1213.1 841.444 1258.07 786.727 C 1255.73 781.393 1253.01 770.074 1257.82 766.245 C 1281.91 747.047 1305.05 793.707 1262.58 789.391 C 1251.9 801.277 1243.05 816.549 1235.14 829.079 C 1222.54 849.024 1164.52 857.154 1140.85 860.813 C 1139.22 862.347 1137.63 863.917 1136.08 865.52 C 1126.32 875.73 1108.98 894.215 1102.54 906.82 C 1101.8 908.266 1101.98 914.771 1102.02 916.943 L 1129.84 916.974 C 1143.64 903.585 1157.53 890.299 1171.52 877.118 L 1188.58 876.817 C 1191.64 869.945 1194.93 863.793 1203.21 862.875 C 1212.69 861.823 1222.36 864.533 1225.59 874.441 C 1229.35 885.941 1219.84 900.911 1207.45 901.015 C 1198.42 901.091 1193.1 893.381 1187.97 887.226 C 1185.66 884.445 1179.94 885.071 1176.5 885.087 C 1163.91 894.542 1146.76 913.532 1132.51 925.009 L 1102.04 924.903 L 1102.19 985.975 C 1126.29 971.273 1242.46 895.497 1252.91 881.362 C 1259.67 872.232 1264.62 860.93 1269.99 850.902 C 1281.94 828.622 1293.36 806.109 1307.08 784.858 C 1297.2 815.734 1283.76 850.102 1271.58 880.099 C 1300.77 873.079 1329.99 866.229 1359.26 859.549 C 1373.41 856.277 1394.92 850.636 1408.85 848.531 C 1411.91 842.198 1409.64 836.718 1417.5 831.825 C 1423.84 827.878 1433.8 831.859 1437.27 838.354 C 1443.34 859.008 1424.51 869.054 1409.82 850.833 C 1381.14 860.288 1352.59 870.531 1323.95 880.249 C 1348.14 924.074 1348.6 908.96 1385.5 939.202 C 1347.79 921.239 1335.38 919.939 1315.53 884.244 C 1306 887.262 1273.24 898.031 1265.95 902.15 C 1240.42 916.57 1210.39 940.959 1187.72 959.526 C 1202.77 963.841 1220.43 967.653 1235.81 971.336 C 1254.64 962.469 1273.74 953.873 1292.69 945.244 C 1275.65 958.891 1255.92 970.541 1237.83 983.009 C 1217.65 979.491 1185.26 976.537 1165.17 975.954 C 1145.16 990.554 1121.04 1009.54 1102.63 1025.61 C 1102.53 1064.68 1101.28 1115.85 1116.53 1152.29 C 1119.23 1158.72 1126.75 1166.1 1131.89 1170.92 C 1154.51 1176.27 1177.36 1180.82 1199.93 1186.53 C 1208.86 1178.15 1218.17 1168.58 1226.94 1159.92 C 1250.31 1159.43 1274.6 1159.68 1298.06 1159.64 C 1312.53 1129 1340.03 1147.8 1336.32 1166.1 C 1335.18 1171.53 1331.93 1176.27 1327.29 1179.29 C 1314.76 1187.42 1304.62 1178.62 1298.22 1168.02 C 1275.72 1167.89 1253.23 1167.88 1230.73 1167.99 C 1223.14 1175.46 1218.09 1180.75 1211.08 1188.84 C 1218.46 1187.27 1241.34 1179.88 1246.07 1179.6 C 1264.32 1178.51 1303.43 1191 1320.6 1197.11 C 1334.38 1193.28 1352.06 1189.26 1364.17 1181.41 C 1365.94 1179.19 1367.6 1170.92 1369.39 1169.6 C 1393.1 1152.03 1403.45 1195.37 1379.1 1196.69 C 1374.63 1196.93 1369.52 1191.97 1366.64 1188.35 L 1365.86 1187.34 C 1355.58 1191.61 1345.25 1196.15 1334.66 1199.49 C 1349.24 1205.3 1352.01 1208.53 1364.03 1218.14 C 1393.59 1217.61 1407.84 1216.45 1434.39 1228.49 C 1427.35 1227.23 1420 1225.03 1412.62 1223.71 C 1394.89 1220.54 1379.3 1223.18 1361.67 1225.44 C 1348.75 1216.41 1342.75 1212.99 1327.48 1209.04 C 1301.11 1202.21 1274.71 1196.55 1247.38 1195.66 C 1270.46 1212.88 1315.73 1239.33 1342.89 1248.99 C 1363.31 1256.25 1384.87 1260.29 1406.18 1269.64 C 1377 1266.92 1343.78 1263.91 1315.78 1254.82 C 1304.79 1251.25 1289.68 1243.26 1279.1 1237.91 C 1294.14 1274.53 1308.55 1303.9 1335.55 1333.34 C 1346.15 1344.9 1350.74 1396.79 1351.27 1413.58 C 1345.35 1394.57 1340.99 1368.96 1333.09 1351.64 C 1327.1 1338.49 1307.86 1321.99 1298.66 1307.72 C 1281.73 1281.48 1272.63 1255.34 1259.5 1227.84 C 1230.3 1213.97 1177.1 1215.19 1143.47 1214.78 L 1158.97 1231.7 C 1175.82 1231.24 1193.19 1231.42 1210.09 1231.4 C 1218.19 1237.97 1223.67 1243.29 1231.06 1250.53 L 1231.05 1275.67 C 1238.31 1281.39 1252.52 1295.75 1259.7 1302.62 C 1277.81 1320.05 1296.03 1337.36 1314.36 1354.56 C 1314.41 1359.31 1314.69 1364.53 1314.85 1369.31 L 1316.45 1370.15 C 1329.95 1377.08 1338.05 1390.2 1324.05 1402.2 C 1316.99 1408.24 1300.35 1408.26 1295.37 1399.71 C 1287.04 1385.38 1295.15 1376.96 1307.13 1370 L 1306.83 1358.05 C 1280.89 1335.25 1247.98 1303.9 1223.06 1279.82 C 1223.58 1271.45 1223.4 1261.92 1223.43 1253.45 C 1218.29 1249.94 1212.32 1244.41 1207.52 1240.19 C 1194.04 1239.8 1179.71 1240.02 1166.16 1240.02 C 1188.37 1263.5 1190.47 1280.1 1199.29 1310.97 C 1218.57 1320.43 1233.19 1328.19 1251.91 1339.02 C 1235.4 1333.97 1219.05 1328.43 1202.89 1322.4 C 1213.12 1347.89 1218.39 1348.56 1240.93 1364.15 C 1229.31 1359.41 1211.34 1351.89 1200.88 1345.46 C 1197.77 1339.74 1189.74 1319.77 1187.03 1313.4 C 1174.32 1283.49 1166.08 1269.45 1137.84 1252.43 C 1128.66 1246.9 1121.65 1241.62 1111.07 1236.5 C 1130.85 1256.38 1152.31 1275.32 1172.53 1294.93 C 1172.29 1309.79 1172.16 1324.63 1172.35 1339.62 C 1172.64 1345.96 1171.23 1365.22 1178.38 1368.24 C 1188.96 1372.72 1203.06 1356.74 1214.71 1363.78 C 1231.33 1373.82 1226.54 1395.77 1208.09 1399.4 C 1203.51 1400.26 1198.78 1399.18 1195.03 1396.41 C 1188.74 1391.73 1187.46 1386.64 1186.63 1379.37 L 1186.48 1377.92 C 1180.67 1377.85 1177.18 1377.43 1171.53 1376.71 C 1166.26 1368.04 1164.05 1363.04 1164.19 1352.53 C 1164.42 1334.48 1164.8 1316.6 1164.46 1298.55 C 1146.07 1279.84 1124.77 1262.96 1106.89 1243.69 C 1104.79 1241.41 1105.44 1238.51 1104.84 1235.89 C 1103.24 1228.88 1092.98 1223.09 1087.26 1219.05 C 1094.09 1235.15 1105.38 1262.31 1117.11 1274.4 C 1125.97 1283.53 1135.88 1292.14 1145.1 1302.08 C 1145.18 1332.37 1143.4 1363 1143.54 1393.44 C 1152.95 1398.87 1164.61 1409.15 1152.51 1419.42 C 1148.53 1422.77 1143.32 1424.28 1138.17 1423.57 C 1129.11 1422.3 1124.84 1414.15 1126.85 1405.41 C 1128.27 1399.26 1134.36 1396.09 1139.58 1393.39 C 1140.1 1364.34 1139.55 1335.28 1137.93 1306.27 C 1131.43 1298.85 1119.07 1287.43 1111.69 1280.2 C 1114.66 1304.92 1116.92 1329.73 1118.47 1354.59 C 1111.58 1329.44 1105.8 1302.52 1098.64 1277.92 C 1094.5 1296.06 1093.4 1317.29 1088.91 1336.4 C 1087.98 1317.15 1088.34 1287.63 1090.22 1268.73 C 1085.42 1259.97 1076.62 1249.28 1070.3 1241.3 C 1071.68 1265.71 1070.94 1296.98 1071 1322.03 C 1080.32 1331.2 1091.24 1342.32 1099.66 1352.14 L 1099.59 1397.78 C 1105.56 1406.09 1115.08 1417.93 1121.79 1425.5 C 1137.03 1430.31 1172.39 1438.84 1188.15 1442.12 C 1193.12 1434.8 1198.95 1429.69 1208 1433.51 C 1233.09 1444.1 1198.74 1485.08 1187.37 1446.77 C 1164.88 1441.66 1140.95 1438.68 1118.67 1432.27 C 1111.05 1424.04 1099.43 1408.65 1092.11 1399.55 L 1091.81 1356.05 C 1084.55 1349.7 1077.34 1343.29 1070.16 1336.84 C 1070.95 1362.42 1070.42 1390.54 1070.4 1416.33 L 1133.99 1474.56 C 1152.77 1491.79 1116.94 1515.42 1104.42 1499.28 C 1095.03 1487.17 1100.27 1476.85 1111.32 1468.42 C 1095.85 1451.76 1078.23 1435.61 1061.97 1419.44 C 1062.45 1389.78 1062.7 1360.12 1062.72 1330.45 C 1052.72 1360.71 1037.79 1388.7 1025.59 1418.33 C 1036.82 1447.07 1039.92 1485.65 1034.77 1516.05 C 1031.44 1479.39 1031.15 1468.11 1018.99 1433.35 C 1013.58 1457.72 1005.34 1469.71 992.448 1490.31 C 995.634 1502.32 999.042 1517.82 1000.9 1529.99 C 995.158 1516.87 990.709 1502.68 984.735 1489.29 C 1006.88 1451.22 1006.2 1421.69 1017.99 1379.25 C 981.477 1396.63 988.534 1412.52 971.978 1442.85 C 975.459 1426.28 979.058 1403.43 986.054 1388.54 C 994.191 1371.22 1012.46 1367.9 1022.28 1352.45 C 1029.51 1341.07 1032.11 1328.97 1035.48 1316.09 C 1013.39 1276.15 1014.69 1276.17 1011.66 1230.33 L 1000.81 1241.24 C 1001.17 1254.65 1000.99 1268.97 1001.06 1282.45 C 1008.07 1289.21 1013.38 1294.42 1019.86 1301.78 L 1020.05 1318.56 C 994.904 1344.39 968.319 1368.62 942.939 1395 L 942.989 1412.81 C 972.191 1424.94 950.311 1457.09 931.01 1448.04 C 914.591 1440.34 914.944 1418.62 934.874 1412.13 C 934.928 1405.37 934.664 1398.79 934.424 1392.04 C 941.066 1384.14 949.939 1376.2 957.471 1368.93 C 970.831 1356.09 984.114 1343.17 997.318 1330.18 C 1020.49 1306.95 1014.91 1306.53 992.794 1285.27 L 992.915 1249.57 L 976.609 1264.89 L 984.115 1293.33 C 981.253 1303.04 973.479 1321.68 969.291 1331.39 C 976.103 1300.8 981.047 1301.07 967.745 1272.55 C 939.991 1295.49 938.553 1312.4 934.52 1345.85 C 937.688 1347.82 941.354 1350.33 943.486 1353.44 C 945.735 1356.69 946.501 1360.74 945.595 1364.59 C 943.69 1372.79 934.623 1377.05 926.801 1374.74 C 919.44 1372.57 916.964 1367.53 913.679 1361.26 C 900.61 1372.32 880.657 1391.57 869.449 1404.23 C 869.062 1417.88 869.534 1433.52 869.629 1447.31 C 879.69 1452.83 886.286 1457.93 884.539 1470.09 C 880.786 1496.19 840.575 1485.8 846.283 1462.36 C 847.91 1455.68 855.63 1451.05 861.368 1448.12 C 861.357 1432.88 861.006 1415.88 861.909 1400.82 C 871.424 1389.95 906.102 1355.43 916.907 1346.55 C 916.994 1337.23 916.846 1329.66 916.289 1320.35 C 900.355 1343.94 877.421 1365.08 856.131 1383.71 C 860.79 1398.97 851.662 1413.47 834.685 1411.13 C 822.58 1409.46 814.644 1395.86 807.895 1386.35 C 792.65 1406.35 794.543 1418.87 789.662 1443.31 L 789.629 1442.45 C 788.185 1402.12 788.029 1384.23 816.617 1353.47 C 786.535 1354.24 776.26 1357.81 749.399 1370.79 C 773.746 1348.58 787.077 1344.4 819.919 1338.52 C 825.747 1321.56 833.709 1305.27 839.696 1287.52 L 824.978 1287.46 C 810.549 1299.71 800.663 1316.01 782.42 1323.89 C 775.178 1327.02 756.414 1331.79 750.944 1334.86 C 730.364 1346.39 720.229 1394.81 714.671 1417.05 C 715.037 1394.16 721.502 1330.75 744.434 1323.15 C 786.208 1309.31 782.319 1306.19 811.66 1275.64 C 830.784 1274.12 852.277 1270.77 868.892 1260.91 C 893.403 1246.36 915.964 1227.94 939.315 1211.66 C 918.305 1214.84 896.669 1216.41 875.481 1217.79 C 866.872 1228.23 858.436 1238.86 847.085 1246.46 C 842.808 1249.33 837.036 1251.24 833.684 1253.86 C 836.267 1255.24 838.799 1256.09 840.009 1258.58 L 838.908 1259.91 C 832.312 1262.82 810.075 1261.78 801.844 1261.74 C 791.852 1270 777.719 1284.7 768.101 1294.17 C 753.999 1293.96 739.525 1294.12 725.39 1294.1 C 709.975 1307.12 680.134 1339.28 665.285 1354.81 C 666.745 1357.86 667.954 1361.26 669.178 1364.44 C 665.884 1374.28 661.104 1382.99 649.193 1382.87 C 643.412 1382.78 637.932 1380.28 634.079 1375.97 C 626.18 1367.19 628.133 1355.23 637.112 1348.05 C 643.872 1342.64 650.708 1346.04 658.474 1346.9 C 666.99 1343.64 712.115 1296.02 722.288 1286.08 C 736.224 1285.91 750.688 1286.16 764.667 1286.2 C 775.114 1275.7 787.651 1263.61 798.516 1253.75 C 828.693 1253.69 839.516 1242.37 856.894 1219.97 C 818.472 1221.63 793.351 1240.9 759.387 1254.67 C 731.37 1266.03 720.31 1266.36 696.985 1287.36 C 677.83 1284.74 660.761 1284.92 641.508 1284.92 C 637.07 1293.4 625.866 1304.39 615.191 1294.7 C 608.851 1288.94 611.996 1273.33 619.272 1268.27 C 629.466 1261.18 637.465 1272.26 641.65 1280.36 C 656.963 1281.5 678.336 1281.54 693.838 1281.24 L 711.546 1267.66 C 696.812 1269.51 678.798 1270.72 663.9 1271.47 C 690.902 1259.89 723.86 1255.59 749.984 1241.78 C 768.112 1232.2 787.536 1220.36 804.546 1208.92 C 788.843 1201.51 773.069 1194.25 757.227 1187.14 C 709.4 1211.94 710.561 1210.33 657.88 1210.04 C 655.275 1216.17 649.076 1224.95 641.799 1224.03 C 622.195 1221.56 622.435 1190.39 645.216 1194 C 651.302 1194.96 655.361 1201.61 658.746 1206.45 C 698.08 1205.96 711.919 1205.86 743.711 1181.45 C 730.927 1175.67 718.416 1170.61 705.403 1165.35 C 679.761 1190.71 664.616 1151.32 688.377 1143.34 C 699.049 1139.75 703.848 1151.12 705.828 1159.94 C 743.701 1174.15 784.806 1186.05 823.638 1199.12 C 847.218 1191.49 871.619 1187.37 895.744 1181.78 C 921.373 1175.85 933.187 1175.61 951.155 1154.57 C 952.882 1141.77 953.005 1126.03 953.142 1113.12 L 916.339 1112.83 L 916.174 1074.32 C 919.47 1070.07 925.549 1063.67 929.658 1060.29 L 952.926 1060.05 L 952.911 1020.36 C 929.324 997.699 864.438 930.224 839.083 921.435 C 821.124 915.21 800.386 916.739 781.684 916.827 C 773.838 925.573 766.325 935.624 759.273 945.025 C 777.261 982.093 717.041 972.119 736.003 945.873 C 742.833 936.42 754.617 944.414 761.152 933.5 C 764.721 927.538 768.653 921.773 772.66 916.151 C 757.354 913.993 723.774 913.02 708.012 912.533 C 705.474 908.235 702.581 902.372 700.201 897.849 C 682.819 899.463 662.95 901.012 645.901 904.547 C 644.559 910.72 639.585 922.333 632.283 921.254 C 598.091 916.201 622.547 868.801 645.431 900.13 C 661.231 897.647 679.499 893.508 695.381 890.287 C 690.158 878.222 681.712 863.25 673.9 852.881 C 662.912 847.658 648.444 844.192 638.127 838.348 C 651.544 841.253 664.918 844.352 678.245 847.644 C 689.33 860.632 706.288 885.155 715.562 899.575 C 740.635 899.624 770.035 899.427 794.878 897.96 C 783.602 892.696 772.385 887.304 761.231 881.785 C 751.59 857.609 738.531 821.774 727.776 799.206 C 715.026 790.196 699.839 782.966 685.763 772.802 C 702.219 779.136 718.848 785.452 734.738 793.09 C 748.63 818.05 762.812 846.924 776.011 872.512 L 823.1 891.094 C 837.642 896.691 858.759 904.091 871.448 912.058 C 890.306 923.898 910.074 941.03 927.545 955.347 C 927.253 951.49 927.233 946.88 925.538 943.353 C 918.766 929.258 872.132 886.677 858.077 872.711 C 853.215 872.296 847.442 872.244 842.497 872.07 C 837.364 881.125 829.134 888.248 818.063 884.743 C 812.953 883.073 808.717 879.436 806.293 874.637 C 795.094 852.91 831.151 829.927 843.659 864.136 C 849.214 864.441 855.366 864.469 860.979 864.601 C 882.625 885.246 902.56 907.649 924.056 928.312 C 918.179 910.144 915.141 890.225 904.541 873.751 C 897.591 862.949 888.883 850.658 880.08 841.287 C 875.573 840.107 862.762 838.042 857.89 837.161 C 825.972 831.39 818.92 823.059 797.533 801.045 C 795.34 802.14 792.77 803.079 790.384 803.548 C 768.45 808.645 768.661 774.023 786.311 773.496 C 802.04 773.025 802.593 787.259 802.104 797.313 C 827.418 827.924 834.834 822.767 870.468 828.546 C 843.073 792.336 830.212 770.457 809.39 731.091 C 823.754 747.281 836.099 766.88 851.478 784.227 C 863.482 770.415 867.983 761.759 867.633 743.753 L 868.409 744.118 C 869.134 748.843 870.838 755.725 871.751 761.112 C 867.469 771.316 862.73 780.984 857.934 790.945 C 875.985 813.697 899.237 836.226 917.062 857.421 C 934.382 878.016 944.721 942.205 948.601 970.035 C 956.534 978.326 965.725 985.223 974.69 992.429 L 974.89 943.886 C 965.758 934.396 956.139 924.914 946.841 915.547 C 947.155 887.522 946.741 858.714 946.691 830.618 C 934.539 816.175 925.817 803.922 909.387 795.291 C 903.292 790.265 900.54 775.41 906.754 770.333 C 927.313 753.532 958.23 774.12 931.195 799.303 C 938.39 808.856 946.816 818.273 954.647 827.37 C 955.394 855.318 954.412 883.74 955.023 911.952 C 961.467 918.238 968.595 926.13 974.961 932.729 L 975.266 791.106 C 966.383 777.237 956.506 763.486 946.964 750.06 C 926.68 744.214 872.142 724.043 858.569 709.348 C 851.917 702.147 832.987 674.494 826.346 664.998 C 838.304 676.247 849.67 688.652 861.142 699.707 C 876.642 714.644 909.874 721.445 931.572 727.426 C 927.277 720.608 920.047 710.1 917.001 703.173 C 906.029 678.229 903.175 646.485 898.382 619.329 C 906.59 636.092 916.075 666.263 923.392 685.016 C 950.807 656.154 945.147 655.194 949.845 619.939 C 951.2 632.286 952.651 647.596 952.866 659.857 C 944.886 673.188 937.637 682.091 927.938 694.061 C 936.674 705.469 947.555 717.752 956.844 728.948 L 1003.92 786.628 C 1004.03 809.518 1005.26 832.518 1006.15 855.406 L 1026.21 855.28 C 1025.75 830.764 1026.57 804.89 1026.31 779.931 C 1008.85 764.039 990.628 745.402 973.988 728.522 L 973.883 706.486 C 941.932 692.837 960.452 663.368 979.889 668.433 C 985.758 669.982 990.724 673.891 993.61 679.231 C 999.937 690.999 992.638 699.784 982.117 704.754 C 981.821 711.412 981.896 718.204 981.886 724.882 C 998.364 739.982 1017.5 760.069 1033.62 776.046 C 1034.92 799.684 1034.13 831.217 1034.23 855.444 L 1052.61 855.447 C 1053.16 822.118 1055.75 791.022 1058.18 757.848 C 1026.69 715.256 1023.27 708.994 1017.13 657.492 C 1004.56 656.505 991.202 648.298 1001.63 635.177 C 1005.01 630.96 1009.99 628.335 1015.38 627.928 C 1025.05 627.19 1030.25 633.473 1030.46 642.841 C 1030.58 648.311 1024.16 654.19 1020.41 657.513 C 1027.86 693.053 1026.62 697.705 1049.97 726.952 C 1050.66 717.741 1050.57 706.562 1050.73 697.192 C 1035.43 689.815 1029.07 671.593 1042.47 663.071 C 1063.48 649.697 1092.87 682.239 1058.37 697.145 C 1058.17 703.649 1057.2 734.823 1061.83 737.67 C 1067.09 733.296 1079.9 687.975 1082.84 678.159 C 1080.02 673.845 1077.32 668.73 1074.93 664.113 C 1065.18 645.303 1054.88 627.684 1043.26 609.95 z"/>
<path transform="translate(0,0)" fill="rgb(63,168,228)" d="M 895.335 1271.84 L 896.456 1272.18 C 897.087 1275.01 894.818 1279.99 893.766 1282.99 C 897.752 1295.35 903.834 1306.64 909.048 1318.57 C 898.456 1337.86 869.723 1362.27 852.742 1377.64 C 841.134 1370.22 833.787 1370.14 823.791 1379.98 C 821.284 1383.93 820.113 1387.67 818.458 1392.03 C 816.365 1387.75 813.561 1382.9 811.254 1378.66 C 819.273 1368.34 826.532 1357.45 832.974 1346.08 C 843.436 1327.63 853.627 1303.33 868.644 1288.48 C 875.141 1282.06 887.012 1276.24 895.335 1271.84 z"/>
<path transform="translate(0,0)" fill="rgb(63,168,228)" d="M 1143.81 768.869 C 1144.4 772.623 1138.36 820.445 1137.77 829.283 C 1120.09 848.75 1102.15 867.442 1084.37 887.279 C 1083.55 880.163 1083.95 868.436 1083.98 860.941 C 1093.12 851.225 1102.7 841.53 1112 831.929 C 1111.92 821.085 1111.99 810.241 1112.23 799.4 C 1120.89 789.525 1134.04 777.721 1143.81 768.869 z"/>
<path transform="translate(0,0)" fill="rgb(63,168,228)" d="M 980.06 1226.8 L 981.432 1227.44 C 980.552 1235.3 938.246 1279.54 935.475 1296.87 C 933.465 1309.44 933.615 1341.67 927.177 1347.35 L 925.588 1346.31 C 922.984 1341.34 924.267 1268.13 924.325 1257.15 C 942.152 1246.95 961.91 1236.65 980.06 1226.8 z"/>
<path transform="translate(0,0)" fill="rgb(63,168,228)" d="M 1050.73 1217.29 C 1056.4 1221.33 1059.29 1224.88 1062.89 1230.83 C 1062.99 1248.46 1063.81 1272.28 1062.57 1289.21 C 1051.46 1259.65 1050.13 1247.99 1050.73 1217.29 z"/>
<path transform="translate(0,0)" fill="rgb(63,168,228)" d="M 836.167 1380.45 C 842.186 1378.91 848.337 1382.44 850.052 1388.41 C 851.766 1394.38 848.422 1400.63 842.504 1402.52 C 838.517 1403.79 834.154 1402.8 831.115 1399.92 C 828.075 1397.05 826.84 1392.74 827.891 1388.69 C 828.942 1384.64 832.112 1381.48 836.167 1380.45 z"/>
<path transform="translate(0,0)" fill="rgb(63,168,228)" d="M 862.532 1455.67 C 868.511 1453.99 874.73 1457.41 876.519 1463.36 C 878.309 1469.3 875.011 1475.59 869.101 1477.49 C 865.175 1478.76 860.871 1477.8 857.848 1475 C 854.825 1472.19 853.554 1467.97 854.525 1463.96 C 855.497 1459.95 858.559 1456.78 862.532 1455.67 z"/>
<path transform="translate(0,0)" fill="rgb(63,168,228)" d="M 819.69 855.459 C 825.59 853.29 832.131 856.327 834.282 862.233 C 836.434 868.14 833.379 874.672 827.465 876.806 C 821.577 878.931 815.078 875.892 812.935 870.009 C 810.793 864.127 813.814 857.619 819.69 855.459 z"/>
<path transform="translate(0,0)" fill="rgb(63,168,228)" d="M 1313.1 1152.57 C 1316.89 1150.91 1321.29 1151.44 1324.57 1153.96 C 1327.86 1156.48 1329.51 1160.59 1328.88 1164.68 C 1328.25 1168.78 1325.44 1172.2 1321.55 1173.62 C 1315.8 1175.72 1309.41 1172.88 1307.13 1167.19 C 1304.85 1161.5 1307.49 1155.03 1313.1 1152.57 z"/>
<path transform="translate(0,0)" fill="rgb(63,168,228)" d="M 644.187 1353.53 C 647.946 1351.81 652.346 1352.27 655.664 1354.74 C 658.981 1357.21 660.69 1361.29 660.119 1365.38 C 659.549 1369.48 656.791 1372.94 652.925 1374.41 C 647.217 1376.57 640.819 1373.83 638.462 1368.19 C 636.105 1362.56 638.638 1356.08 644.187 1353.53 z"/>
<path transform="translate(0,0)" fill="rgb(63,168,228)" d="M 972.089 676.551 C 975.843 674.912 980.192 675.441 983.444 677.932 C 986.697 680.422 988.341 684.482 987.738 688.534 C 987.135 692.586 984.38 695.991 980.543 697.427 C 974.826 699.566 968.444 696.763 966.153 691.105 C 963.862 685.446 966.494 678.993 972.089 676.551 z"/>
<path transform="translate(0,0)" fill="rgb(63,168,228)" d="M 1202.02 1370.42 C 1207.87 1368.34 1214.31 1371.4 1216.4 1377.26 C 1218.48 1383.11 1215.42 1389.55 1209.56 1391.63 C 1203.7 1393.71 1197.27 1390.65 1195.19 1384.79 C 1193.11 1378.94 1196.16 1372.51 1202.02 1370.42 z"/>
<path transform="translate(0,0)" fill="rgb(63,168,228)" d="M 1202.37 871.501 C 1207.91 868.72 1214.66 870.986 1217.4 876.549 C 1220.13 882.111 1217.82 888.839 1212.23 891.534 C 1206.71 894.2 1200.07 891.912 1197.36 886.41 C 1194.65 880.909 1196.89 874.252 1202.37 871.501 z"/>
<path transform="translate(0,0)" fill="rgb(63,168,228)" d="M 1051.1 667.509 C 1054.88 666.169 1059.09 666.975 1062.11 669.617 C 1065.14 672.258 1066.5 676.324 1065.68 680.254 C 1064.86 684.183 1061.98 687.365 1058.16 688.577 C 1052.38 690.409 1046.19 687.266 1044.27 681.516 C 1042.34 675.766 1045.38 669.532 1051.1 667.509 z"/>
<path transform="translate(0,0)" fill="rgb(63,168,228)" d="M 1186.55 678.686 C 1192.24 676.698 1198.47 679.607 1200.6 685.241 C 1202.73 690.876 1199.98 697.181 1194.4 699.452 C 1190.67 700.972 1186.4 700.347 1183.26 697.819 C 1180.11 695.291 1178.59 691.258 1179.27 687.282 C 1179.96 683.307 1182.74 680.016 1186.55 678.686 z"/>
<path transform="translate(0,0)" fill="rgb(63,168,228)" d="M 1116.35 1475.6 C 1122.07 1474.13 1127.93 1477.47 1129.59 1483.14 C 1131.24 1488.81 1128.1 1494.77 1122.49 1496.62 C 1118.69 1497.86 1114.51 1496.94 1111.59 1494.21 C 1108.67 1491.48 1107.47 1487.37 1108.46 1483.5 C 1109.45 1479.62 1112.48 1476.6 1116.35 1475.6 z"/>
<path transform="translate(0,0)" fill="rgb(63,168,228)" d="M 934.422 1420.62 C 938.151 1419.25 942.33 1420 945.341 1422.59 C 948.351 1425.19 949.722 1429.21 948.922 1433.1 C 948.122 1436.99 945.276 1440.14 941.487 1441.33 C 935.816 1443.12 929.756 1440.05 927.837 1434.43 C 925.918 1428.8 928.841 1422.67 934.422 1420.62 z"/>
<path transform="translate(0,0)" fill="rgb(63,168,228)" d="M 1307.78 1378.5 C 1313.43 1376.32 1319.79 1379.15 1321.93 1384.83 C 1324.08 1390.5 1321.19 1396.83 1315.51 1398.94 C 1309.88 1401.02 1303.62 1398.17 1301.5 1392.56 C 1299.38 1386.94 1302.18 1380.67 1307.78 1378.5 z"/>
<path transform="translate(0,0)" fill="rgb(63,168,228)" d="M 920.5 771.547 C 926.062 770.329 931.611 773.645 933.173 779.12 C 934.735 784.594 931.771 790.34 926.404 792.24 C 922.622 793.578 918.41 792.706 915.47 789.976 C 912.531 787.246 911.351 783.109 912.407 779.239 C 913.463 775.369 916.581 772.405 920.5 771.547 z"/>
<path transform="translate(0,0)" fill="rgb(63,168,228)" d="M 914.466 1264.74 C 916.841 1268.27 916.819 1305.47 915.612 1311.12 L 914.583 1311.56 L 912.945 1307.72 C 909.679 1299.34 906.494 1290.93 903.392 1282.49 C 907.103 1276.16 910.383 1270.84 914.466 1264.74 z"/>
<path transform="translate(0,0)" fill="rgb(63,168,228)" d="M 627.676 897.491 C 632.141 895.66 637.247 897.764 639.127 902.208 C 641.007 906.652 638.961 911.781 634.538 913.711 C 631.633 914.978 628.271 914.586 625.735 912.685 C 623.199 910.784 621.88 907.667 622.281 904.523 C 622.683 901.379 624.744 898.693 627.676 897.491 z"/>
<path transform="translate(0,0)" fill="rgb(63,168,228)" d="M 1034.77 587.503 C 1039.43 586.923 1043.72 590.146 1044.45 594.788 C 1045.18 599.43 1042.1 603.816 1037.48 604.699 C 1034.36 605.297 1031.16 604.145 1029.13 601.695 C 1027.11 599.245 1026.58 595.886 1027.75 592.931 C 1028.92 589.976 1031.61 587.896 1034.77 587.503 z"/>
<path transform="translate(0,0)" fill="rgb(63,168,228)" d="M 1012.01 634.608 C 1014.98 633.526 1018.3 634.141 1020.68 636.212 C 1023.06 638.284 1024.13 641.485 1023.47 644.571 C 1022.8 647.658 1020.52 650.141 1017.5 651.056 C 1013 652.416 1008.24 649.953 1006.76 645.499 C 1005.27 641.045 1007.6 636.218 1012.01 634.608 z"/>
<path transform="translate(0,0)" fill="rgb(63,168,228)" d="M 747.496 946.602 C 752.076 946.314 756.08 949.661 756.608 954.219 C 757.137 958.777 754.005 962.951 749.481 963.719 C 746.335 964.252 743.152 963.006 741.204 960.479 C 739.257 957.952 738.863 954.556 740.181 951.65 C 741.498 948.744 744.312 946.803 747.496 946.602 z"/>
<path transform="translate(0,0)" fill="rgb(63,168,228)" d="M 1266.33 768.562 C 1270.52 766.441 1275.63 768.052 1277.84 772.19 C 1280.05 776.327 1278.55 781.474 1274.46 783.774 C 1271.74 785.307 1268.4 785.246 1265.73 783.614 C 1263.06 781.983 1261.49 779.036 1261.61 775.912 C 1261.74 772.788 1263.54 769.976 1266.33 768.562 z"/>
<path transform="translate(0,0)" fill="rgb(63,168,228)" d="M 1422.22 837.6 C 1426.59 836.524 1431.06 839.014 1432.44 843.302 C 1433.82 847.59 1431.66 852.218 1427.48 853.903 C 1424.5 855.105 1421.09 854.541 1418.66 852.443 C 1416.23 850.345 1415.17 847.063 1415.92 843.937 C 1416.67 840.812 1419.1 838.367 1422.22 837.6 z"/>
<path transform="translate(0,0)" fill="rgb(63,168,228)" d="M 687.791 1150.68 C 692.166 1148.95 697.121 1151.06 698.9 1155.42 C 700.679 1159.77 698.619 1164.75 694.282 1166.57 C 691.435 1167.77 688.164 1167.35 685.717 1165.46 C 683.27 1163.58 682.023 1160.53 682.452 1157.47 C 682.881 1154.41 684.92 1151.82 687.791 1150.68 z"/>
<path transform="translate(0,0)" fill="rgb(63,168,228)" d="M 1141.49 1400.48 C 1146.09 1400.37 1149.95 1403.93 1150.22 1408.52 C 1150.5 1413.12 1147.09 1417.11 1142.51 1417.56 C 1139.39 1417.86 1136.35 1416.44 1134.59 1413.84 C 1132.83 1411.25 1132.63 1407.9 1134.07 1405.11 C 1135.51 1402.32 1138.35 1400.54 1141.49 1400.48 z"/>
<path transform="translate(0,0)" fill="rgb(63,168,228)" d="M 622.868 1274.55 C 627.317 1272.97 632.206 1275.31 633.755 1279.77 C 635.304 1284.23 632.92 1289.1 628.445 1290.61 C 624.023 1292.11 619.223 1289.76 617.692 1285.35 C 616.161 1280.94 618.472 1276.12 622.868 1274.55 z"/>
<path transform="translate(0,0)" fill="rgb(63,168,228)" d="M 640.671 1200.46 C 643.737 1200.01 646.805 1201.27 648.668 1203.74 C 650.532 1206.22 650.892 1209.52 649.608 1212.34 C 648.324 1215.16 645.601 1217.05 642.51 1217.27 C 637.97 1217.6 633.987 1214.28 633.492 1209.75 C 632.998 1205.23 636.169 1201.12 640.671 1200.46 z"/>
<path transform="translate(0,0)" fill="rgb(63,168,228)" d="M 928.36 1352.59 C 932.661 1351.09 937.379 1353.27 939.027 1357.51 C 940.675 1361.76 938.661 1366.55 934.473 1368.34 C 931.634 1369.56 928.358 1369.13 925.929 1367.22 C 923.499 1365.31 922.304 1362.23 922.81 1359.18 C 923.317 1356.14 925.445 1353.61 928.36 1352.59 z"/>
<path transform="translate(0,0)" fill="rgb(63,168,228)" d="M 1198.88 1439.47 C 1203.01 1437.56 1207.91 1439.26 1209.96 1443.32 C 1212.01 1447.38 1210.46 1452.34 1206.46 1454.51 C 1203.76 1455.98 1200.48 1455.86 1197.89 1454.2 C 1195.3 1452.55 1193.82 1449.61 1194.03 1446.55 C 1194.24 1443.48 1196.1 1440.77 1198.88 1439.47 z"/>
<path transform="translate(0,0)" fill="rgb(63,168,228)" d="M 784.222 781.562 C 788.395 779.547 793.41 781.312 795.401 785.497 C 797.391 789.681 795.596 794.686 791.4 796.652 C 787.239 798.602 782.284 796.825 780.31 792.675 C 778.336 788.525 780.084 783.56 784.222 781.562 z"/>
<path transform="translate(0,0)" fill="rgb(63,168,228)" d="M 1376.16 1173.66 C 1380.22 1171.8 1385.02 1173.51 1386.99 1177.51 C 1388.96 1181.52 1387.39 1186.36 1383.45 1188.45 C 1380.79 1189.85 1377.58 1189.7 1375.07 1188.05 C 1372.56 1186.41 1371.14 1183.53 1371.37 1180.54 C 1371.6 1177.54 1373.43 1174.91 1376.16 1173.66 z"/>
<path transform="translate(0,0)" fill="rgb(16,59,105)" d="M 1366.11 941.445 C 1374.12 939.191 1382.45 943.839 1384.75 951.844 C 1387.04 959.85 1382.43 968.201 1374.43 970.53 C 1366.39 972.875 1357.97 968.229 1355.66 960.17 C 1353.35 952.111 1358.04 943.713 1366.11 941.445 z"/>
<path transform="translate(0,0)" fill="rgb(63,168,228)" d="M 1368.63 947.654 C 1371.64 946.994 1374.77 948.008 1376.82 950.308 C 1378.87 952.607 1379.51 955.833 1378.51 958.745 C 1377.51 961.657 1375.01 963.801 1371.98 964.353 C 1367.41 965.184 1363.02 962.203 1362.11 957.65 C 1361.19 953.096 1364.09 948.65 1368.63 947.654 z"/>
<path transform="translate(0,0)" fill="rgb(16,59,105)" d="M 1409.5 1289.54 C 1417.1 1287.58 1424.9 1291.94 1427.22 1299.43 C 1429.55 1306.93 1425.58 1314.93 1418.2 1317.61 C 1413.1 1319.47 1407.4 1318.37 1403.36 1314.75 C 1399.31 1311.13 1397.59 1305.58 1398.88 1300.3 C 1400.16 1295.03 1404.25 1290.9 1409.5 1289.54 z"/>
<path transform="translate(0,0)" fill="rgb(63,168,228)" d="M 1411.23 1295.62 C 1415.53 1294.53 1419.93 1296.96 1421.31 1301.18 C 1422.68 1305.39 1420.56 1309.95 1416.45 1311.61 C 1413.53 1312.78 1410.2 1312.23 1407.81 1310.18 C 1405.42 1308.14 1404.38 1304.93 1405.1 1301.86 C 1405.82 1298.8 1408.18 1296.39 1411.23 1295.62 z"/>
<path transform="translate(0,0)" fill="rgb(121,138,150)" d="M 1109.67 1580.93 C 1127.97 1580.61 1154 1580.12 1172.02 1580.89 C 1171.83 1596.85 1173.35 1614.01 1171.44 1629.8 C 1170.13 1640.71 1163.42 1646.92 1154.58 1652.3 C 1154.7 1667.42 1154.73 1682.55 1154.65 1697.67 L 1126.07 1697.77 L 1126.01 1652.97 C 1107.45 1642.92 1108.54 1634.06 1108.77 1614.29 C 1108.91 1603.24 1109.24 1592.01 1109.67 1580.93 z"/>
<path transform="translate(0,0)" fill="rgb(121,138,150)" d="M 768.169 1580.91 C 786.854 1580.41 811.672 1580.15 830.27 1580.91 C 830.152 1591.85 830.64 1603.03 830.615 1613.99 C 830.574 1631.67 831.305 1644.31 813.528 1652.76 L 813.482 1698.01 L 784.489 1698.14 L 784.098 1652.61 C 761.401 1640.36 767.817 1603.44 768.169 1580.91 z"/>
<path transform="translate(0,0)" fill="rgb(121,138,150)" d="M 882.002 1580.89 C 900.81 1580.44 925.181 1580.27 943.953 1580.9 C 943.809 1597.46 946.014 1620.86 942.531 1636.62 C 940.698 1644.92 934.081 1649.11 927.019 1652.7 L 927.077 1697.8 L 897.955 1697.9 L 898.039 1652.77 C 874.769 1635.84 880.996 1606.69 882.002 1580.89 z"/>
<path transform="translate(0,0)" fill="rgb(193,201,204)" d="M 539.776 1580.74 L 602.18 1580.91 C 602.435 1596.31 603.575 1617.85 601.675 1633.07 C 600.432 1643.03 593.527 1648.14 585.712 1653 L 585.378 1697.85 C 576.021 1698 566.352 1697.86 556.967 1697.85 C 556.852 1682.7 556.824 1667.56 556.883 1652.41 C 540.632 1642.98 539.159 1632.8 539.247 1614.74 C 539.303 1603.44 539.569 1592.04 539.776 1580.74 z"/>
<path transform="translate(0,0)" fill="rgb(121,138,150)" d="M 995.178 1581 C 1016.04 1580.82 1036.91 1580.79 1057.78 1580.91 C 1057.7 1592.28 1058.25 1603.9 1058.28 1615.29 C 1058.32 1632.7 1059.01 1645.07 1040.58 1652.13 C 1040.67 1667.37 1040.67 1682.62 1040.57 1697.86 L 1012.22 1697.89 C 1012.03 1682.95 1012.22 1667.7 1012.25 1652.74 C 988.613 1639.65 995.021 1604.98 995.178 1581 z"/>
<path transform="translate(0,0)" fill="rgb(121,138,150)" d="M 1336.98 1580.92 C 1357.63 1580.61 1378.29 1580.62 1398.95 1580.95 C 1398.78 1597.25 1400.41 1619.32 1397.64 1635.03 C 1396.07 1643.93 1389.58 1648.91 1382 1652.97 L 1382 1697.63 L 1353.08 1697.96 L 1353.22 1653.03 C 1329.97 1639.23 1336.82 1605.55 1336.98 1580.92 z"/>
<path transform="translate(0,0)" fill="rgb(121,138,150)" d="M 1223.04 1580.93 C 1242.53 1580.73 1265.45 1580.27 1284.95 1580.91 C 1284.77 1593.97 1285.24 1607.27 1285.23 1620.33 C 1285.21 1637.05 1283 1644.74 1268.14 1652.79 L 1268.03 1697.58 L 1239.45 1697.75 L 1239.45 1652.99 C 1216.21 1639.78 1222.89 1604.91 1223.04 1580.93 z"/>
<path transform="translate(0,0)" fill="rgb(121,138,150)" d="M 654.287 1580.99 C 672.404 1580.83 698.641 1580.01 716.154 1580.88 C 716.123 1593.6 716.607 1606.51 716.507 1619.25 C 716.37 1636.75 715.181 1644.81 698.994 1652.79 L 698.946 1697.71 L 670.407 1697.93 C 670.605 1682.96 670.371 1668.02 670.617 1653.01 C 647.599 1640.02 654.043 1604.5 654.287 1580.99 z"/>
<path transform="translate(0,0)" fill="rgb(193,201,204)" d="M 1450.33 1580.87 C 1470.96 1580.52 1491.87 1581.39 1512.5 1580.42 C 1512.83 1605.26 1519.94 1640.03 1494.94 1652.5 L 1494.99 1697.7 C 1485.66 1697.91 1476.32 1697.99 1466.99 1697.95 L 1466.96 1652.9 C 1445.9 1639.91 1450.51 1624.53 1450.05 1602.53 C 1449.9 1595.37 1450.23 1588.04 1450.33 1580.87 z"/>
<path transform="translate(0,0)" fill="rgb(121,138,150)" d="M 896.828 403.758 L 927.027 403.413 L 927.367 442.101 C 944.206 451.879 944.888 463.029 945.082 481.113 C 945.192 491.395 944.853 501.859 944.922 512.126 C 923.486 512.277 902.05 512.313 880.614 512.232 C 880.034 486.842 874.761 459.234 896.963 442.044 L 896.828 403.758 z"/>
<path transform="translate(0,0)" fill="rgb(121,138,150)" d="M 1124.98 403.351 L 1153.88 403.3 L 1153.97 442.091 C 1174.23 454.402 1172.01 467.858 1171.99 489.265 C 1171.98 496.782 1171.63 504.734 1171.7 512.221 C 1154.3 513.692 1125.42 512.371 1107.01 512.105 C 1106.7 486.086 1100.71 457.927 1124.87 441.949 L 1124.98 403.351 z"/>
<path transform="translate(0,0)" fill="rgb(121,138,150)" d="M 1237.99 403.402 L 1267.26 403.213 L 1267.45 442.673 C 1277.45 447.792 1283.2 454.106 1284.16 465.854 C 1285.41 481.116 1284.22 496.839 1284.72 512.193 C 1269.85 514.965 1237.69 512.548 1220.97 512.083 C 1220.58 487.487 1214.59 456.9 1237.98 442.333 L 1237.99 403.402 z"/>
<path transform="translate(0,0)" fill="rgb(121,138,150)" d="M 1010.67 403.735 L 1040.46 403.601 L 1040.72 442.127 C 1061.02 454.001 1058.25 468.197 1058.46 489.221 C 1058.54 496.8 1058.37 504.52 1058.31 512.108 L 994.039 512.058 C 993.637 485.498 987.662 459.592 1010.56 441.666 L 1010.67 403.735 z"/>
<path transform="translate(0,0)" fill="rgb(193,201,204)" d="M 1464.88 403.027 L 1494.06 403.038 L 1494.01 442.793 C 1520.56 457.568 1511.31 486.392 1512.04 512.848 C 1494.23 513.524 1466.54 512.311 1448.18 512.059 C 1447.73 486.674 1441.85 458.505 1464.94 442.403 L 1464.88 403.027 z"/>
<path transform="translate(0,0)" fill="rgb(121,138,150)" d="M 783.807 403.903 L 812.959 403.452 L 813.159 441.987 C 838.815 455.693 831.277 486.691 831.313 512.195 L 767.072 512.04 C 766.826 491.832 762.747 461.673 776.965 447.382 C 779.141 445.236 781.438 443.216 783.844 441.332 L 783.807 403.903 z"/>
<path transform="translate(0,0)" fill="rgb(121,138,150)" d="M 1352.35 403.406 L 1381.36 403.238 L 1381.42 442.028 C 1402.45 454.64 1398.03 469.308 1398.6 491.19 C 1398.79 498.12 1398.53 505.204 1398.48 512.139 L 1334.36 512.058 C 1334.1 486.773 1328.14 457.04 1352.25 442.198 L 1352.35 403.406 z"/>
<path transform="translate(0,0)" fill="rgb(193,201,204)" d="M 557.117 403.215 C 566.051 403.273 577.365 403.673 586.11 403.284 L 586.306 442.245 C 594.712 447.391 601.429 453.208 603.053 463.605 C 605.245 477.643 604.265 497.563 604.128 512.123 L 539.737 512.342 C 538.821 494.595 536.394 462.784 549.132 448.877 C 551.2 446.619 554.92 443.782 557.406 441.907 L 557.117 403.215 z"/>
<path transform="translate(0,0)" fill="rgb(121,138,150)" d="M 670.66 403.418 L 698.974 403.372 L 699.078 442.489 C 714.158 449.907 717.425 457.934 717.599 474.955 C 717.726 487.367 717.444 499.85 717.299 512.262 C 696.451 513.355 674.991 512.674 654.108 512.097 C 654.155 487.404 647.708 456.128 670.589 441.933 L 670.66 403.418 z"/>
<path transform="translate(0,0)" fill="rgb(193,201,204)" d="M 452 1436.11 L 452.877 1436.39 C 452.848 1456.36 452.647 1476.64 453.089 1496.61 C 453.255 1504.08 456.005 1514.32 457.641 1521.83 C 454.055 1529.77 453.809 1531.89 443.737 1531.16 C 418.208 1529.33 400.88 1538.16 384.842 1514.75 L 348.833 1514.7 L 348.627 1484.92 L 384.661 1484.79 C 399.822 1461.93 427.148 1467.1 451.89 1467.01 C 451.76 1456.71 451.797 1446.41 452 1436.11 z"/>
<path transform="translate(0,0)" fill="rgb(121,138,150)" d="M 1595.68 695.729 C 1619.72 693.156 1648.93 689.871 1664.04 712.024 L 1699.83 711.992 L 1699.7 742.61 C 1687.75 742.809 1675.79 742.853 1663.84 742.742 C 1652.6 760.191 1640.86 758.925 1621.66 759.056 C 1613.11 759.114 1604.15 758.717 1595.61 758.878 C 1594.94 739.451 1595.38 715.254 1595.68 695.729 z"/>
<path transform="translate(0,0)" fill="rgb(193,201,204)" d="M 1595.72 1469.37 C 1620.85 1469.03 1648.14 1463.51 1664.14 1486.31 L 1699.74 1486.25 L 1699.87 1515.09 C 1687.9 1515.41 1675.93 1515.56 1663.96 1515.55 C 1659.13 1523.64 1654.59 1528.97 1644.58 1530.81 C 1631.62 1533.2 1608.92 1532.27 1595.71 1531.37 L 1589.78 1525.16 C 1593.76 1513.27 1594.95 1501.1 1595.17 1488.67 C 1595.78 1486.85 1595.71 1472.2 1595.72 1469.37 z"/>
<path transform="translate(0,0)" fill="rgb(193,201,204)" d="M 1594.39 584.112 C 1622.54 584.932 1645.21 577.422 1664.8 601.747 C 1676.5 601.892 1688.21 601.859 1699.92 601.646 L 1699.85 630.292 C 1687.95 630.728 1676.04 630.897 1664.13 630.798 C 1659.14 638.759 1654.97 643.866 1644.88 645.864 C 1630.69 648.671 1610.14 647.294 1595.52 646.911 C 1594.94 643.051 1595.18 628.198 1595.18 623.626 C 1595.27 610.45 1595.01 597.274 1594.39 584.112 z"/>
<path transform="translate(0,0)" fill="rgb(193,201,204)" d="M 452.223 911.297 L 452.975 911.058 L 452.891 973.558 L 452.059 978.899 C 428.606 978.308 398.07 985.683 385.143 962.294 L 348.619 962.114 C 348.599 952.414 348.505 942.715 348.334 933.016 L 384.933 932.838 C 399.048 910.981 417.041 916.49 439.838 915.794 C 443.767 915.674 447.839 916.199 451.43 914.686 L 452.223 911.297 z"/>
</svg>